<?xml version="1.0" encoding="utf-8"?>
<!-- Generator: Adobe Illustrator 22.1.0, SVG Export Plug-In . SVG Version: 6.00 Build 0)  -->
<svg version="1.1" id="Layer_1" xmlns="http://www.w3.org/2000/svg" xmlns:xlink="http://www.w3.org/1999/xlink" x="0px" y="0px"
	 viewBox="0 0 110.8 106.6" style="enable-background:new 0 0 110.8 106.6;" xml:space="preserve">
<style type="text/css">
	.st0{fill:#5D786B;}
</style>
<path class="st0" d="M25.7,0.4c13.1,0,20.6,4.1,20.6,16c0,3.1-1.2,8.5-5.9,12.1l7.3,16.3H33.5l-5.4-13.3h-5.2v13.3H10V0.4H25.7z
	 M22.9,22.1h4.7c4.4,0,5.5-3.3,5.5-6c0-2.6-1.4-5.7-5.5-5.7h-4.7C22.9,10.4,22.9,22.1,22.9,22.1z M68.3,44.9l-6.1-29h-0.6v29H49V0.4
	h18.5l7.6,30.2h0.6l7.6-30.2h18.3v44.4H89.1v-29h-0.7l-6.5,29L68.3,44.9L68.3,44.9z M35.3,106.4L27.8,98c3.9-3.6,6.1-7.2,6.1-11.5
	V48.7h12.9v36.9C46.8,94.1,42.6,100.5,35.3,106.4z M62.8,48.7V83h18.3v10H49.9V48.7H62.8z"/>
<path class="st0" d="M110.4,58.9H97.5V93h-13V58.8H71.6V48.7h38.7L110.4,58.9L110.4,58.9z"/>
<g>
	<path class="st0" d="M0.3,58.9h9.6v-10h10v10h9.6v8.8h-9.6v10h-10v-10H0.3C0.3,67.7,0.3,58.9,0.3,58.9z"/>
</g>
</svg>
